<?xml version="1.0" encoding="UTF-8" standalone="no"?>
<svg
   xmlns:dc="http://purl.org/dc/elements/1.1/"
   xmlns:cc="http://creativecommons.org/ns#"
   xmlns:rdf="http://www.w3.org/1999/02/22-rdf-syntax-ns#"
   xmlns:svg="http://www.w3.org/2000/svg"
   xmlns="http://www.w3.org/2000/svg"
   xmlns:sodipodi="http://sodipodi.sourceforge.net/DTD/sodipodi-0.dtd"
   xmlns:inkscape="http://www.inkscape.org/namespaces/inkscape"
   width="480"
   height="160"
   viewBox="0 0 384.00001 128"
   version="1.1"
   id="svg2"
   inkscape:version="0.91 r13725"
   sodipodi:docname="zimbra-logo.svg">
  <metadata
     id="metadata100">
    <rdf:RDF>
      <cc:Work
         rdf:about="">
        <dc:format>image/svg+xml</dc:format>
        <dc:type
           rdf:resource="http://purl.org/dc/dcmitype/StillImage" />
        <dc:title></dc:title>
      </cc:Work>
    </rdf:RDF>
  </metadata>
  <sodipodi:namedview
     pagecolor="#ffffff"
     bordercolor="#666666"
     borderopacity="1"
     objecttolerance="10"
     gridtolerance="10"
     guidetolerance="10"
     inkscape:pageopacity="0"
     inkscape:pageshadow="2"
     inkscape:window-width="1920"
     inkscape:window-height="1051"
     id="namedview98"
     showgrid="false"
     units="px"
     inkscape:zoom="2.0412514"
     inkscape:cx="228.91231"
     inkscape:cy="45.783189"
     inkscape:window-x="1366"
     inkscape:window-y="0"
     inkscape:window-maximized="1"
     inkscape:current-layer="surface4253" />
  <defs
     id="defs4">
    <clipPath
       id="clip1">
      <path
         d="m 310,15 9.01953,0 0,10 L 310,25 Z m 0,0"
         id="path7"
         inkscape:connector-curvature="0" />
    </clipPath>
    <clipPath
       id="clip2">
      <path
         d="m 130,60 8,0 0,10.070312 -8,0 z m 0,0"
         id="path10"
         inkscape:connector-curvature="0" />
    </clipPath>
    <clipPath
       id="clip3">
      <path
         d="m 180,60 9,0 0,10.070312 -9,0 z m 0,0"
         id="path13"
         inkscape:connector-curvature="0" />
    </clipPath>
    <clipPath
       id="clip4">
      <path
         d="m 192,60 11,0 0,10.070312 -11,0 z m 0,0"
         id="path16"
         inkscape:connector-curvature="0" />
    </clipPath>
    <clipPath
       id="clip5">
      <path
         d="m 248,60 11,0 0,10.070312 -11,0 z m 0,0"
         id="path19"
         inkscape:connector-curvature="0" />
    </clipPath>
    <clipPath
       id="clip6">
      <path
         d="m 276,60 8,0 0,10.070312 -8,0 z m 0,0"
         id="path22"
         inkscape:connector-curvature="0" />
    </clipPath>
    <clipPath
       id="clip7">
      <path
         d="m 288,60 9,0 0,10.070312 -9,0 z m 0,0"
         id="path25"
         inkscape:connector-curvature="0" />
    </clipPath>
  </defs>
  <g
     id="surface4253"
     transform="matrix(0.91336519,0,0,0.91336519,0,64.000527)">
    <rect
       style="fill:#ffffff;fill-opacity:1;stroke:none;stroke-width:1;stroke-miterlimit:4;stroke-dasharray:none"
       id="rect4265"
       width="420.42328"
       height="140.1411"
       x="6.6077437e-06"
       y="-70.071129"
       ry="1.4459664" />
    <g
       id="g4228"
       transform="translate(50.701896,-35.035615)">
      <path
         inkscape:connector-curvature="0"
         id="path28"
         d="m 64.570312,25.753906 c 0,2.582032 -2.089843,4.675782 -4.671874,4.675782 -2.582032,0 -4.671876,-2.09375 -4.671876,-4.675782 0,-2.578125 2.089844,-4.671875 4.671876,-4.671875 2.582031,0 4.671874,2.09375 4.671874,4.671875"
         style="fill:#3882c7;fill-opacity:1;fill-rule:nonzero;stroke:none" />
      <path
         inkscape:connector-curvature="0"
         id="path30"
         d="m 37.8125,25.753906 c 0,2.582032 2.09375,4.675782 4.675781,4.675782 2.578125,0 4.671875,-2.09375 4.671875,-4.675782 0,-2.578125 -2.09375,-4.671875 -4.671875,-4.671875 -2.582031,0 -4.675781,2.09375 -4.675781,4.671875"
         style="fill:#3882c7;fill-opacity:1;fill-rule:nonzero;stroke:none" />
      <path
         inkscape:connector-curvature="0"
         id="path32"
         d="m 51.191406,47.609375 c -5.722656,0 -11.019531,-2.679687 -14.167968,-7.167969 -0.976563,-1.382812 -0.636719,-3.292968 0.746093,-4.265625 1.382813,-0.976562 3.296875,-0.640625 4.265625,0.746094 2.011719,2.851563 5.429688,4.558594 9.15625,4.558594 3.722656,0 7.148438,-1.707031 9.152344,-4.558594 0.972656,-1.386719 2.886719,-1.71875 4.269531,-0.746094 1.386719,0.972657 1.722657,2.882813 0.746094,4.265625 -3.148437,4.488282 -8.445313,7.167969 -14.167969,7.167969"
         style="fill:#f37a14;fill-opacity:1;fill-rule:nonzero;stroke:none" />
      <path
         inkscape:connector-curvature="0"
         id="path34"
         d="m 137.33984,46.695312 -16.94921,0 18.28124,-24.773437 c 0.99219,-1.339844 1.36719,-2.203125 1.36719,-3.183594 0,-0.558593 -0.24609,-2.378906 -3.42187,-2.378906 l -21.375,0 c -2.22266,0 -3.48828,1.039063 -3.48828,2.84375 0,1.808594 1.26562,2.84375 3.48828,2.84375 l 15.125,0 -17.98047,24.773437 c -0.98828,1.335938 -1.35938,2.199219 -1.35938,3.179688 0,0.558594 0.2461,2.375 3.41797,2.375 l 22.89453,0 c 2.22266,0 3.5,-1.035156 3.5,-2.839844 0,-1.808594 -1.27734,-2.839844 -3.5,-2.839844"
         style="fill:#f0451e;fill-opacity:1;fill-rule:nonzero;stroke:none" />
      <path
         inkscape:connector-curvature="0"
         id="path36"
         d="m 147.88281,15.960938 c -2.12109,0 -3.49219,1.351562 -3.49219,3.441406 l 0,29.933594 c 0,2.089843 1.3711,3.441406 3.49219,3.441406 2.125,0 3.48828,-1.351563 3.48828,-3.441406 l 0,-29.933594 c 0,-2.089844 -1.36328,-3.441406 -3.48828,-3.441406"
         style="fill:#f0451e;fill-opacity:1;fill-rule:nonzero;stroke:none" />
      <path
         inkscape:connector-curvature="0"
         id="path38"
         d="m 196.48047,15.960938 c -4.97656,0 -8.61328,1.777343 -11.75,5.757812 -2.58594,-3.820312 -6.13281,-5.757812 -10.57031,-5.757812 -5.57032,0 -8.09766,2.351562 -9.5,3.949218 l 0,-0.507812 c 0,-2.089844 -1.375,-3.441406 -3.49219,-3.441406 -2.11719,0 -3.5,1.351562 -3.5,3.441406 l 0,29.933594 c 0,2.089843 1.38281,3.441406 3.5,3.441406 2.11719,0 3.49219,-1.351563 3.49219,-3.441406 l 0,-19.824219 c 0,-4.921875 2.93359,-7.867188 7.85156,-7.867188 4.95703,0 7.91406,2.945313 7.91406,7.867188 l 0,19.824219 c 0,2.089843 1.36719,3.441406 3.48828,3.441406 2.125,0 3.49219,-1.351563 3.49219,-3.441406 l 0,-19.824219 c 0,-4.921875 2.9375,-7.867188 7.84766,-7.867188 4.95703,0 7.91406,2.945313 7.91406,7.867188 l 0,19.824219 c 0,2.089843 1.37109,3.441406 3.49219,3.441406 2.125,0 3.49609,-1.351563 3.49609,-3.441406 l 0,-19.621094 c 0,-9.5 -6.87109,-13.753906 -13.67578,-13.753906"
         style="fill:#f0451e;fill-opacity:1;fill-rule:nonzero;stroke:none" />
      <path
         inkscape:connector-curvature="0"
         id="path40"
         d="m 233.30859,21.644531 c 7.54688,0 10.22657,6.855469 10.22657,12.722657 0,5.871093 -2.67969,12.726562 -10.22657,12.726562 -7.54687,0 -10.22265,-6.855469 -10.22265,-12.726562 0,-5.867188 2.67578,-12.722657 10.22265,-12.722657 m 0.51172,-5.683593 c -4.64062,0 -8.16406,2.179687 -10.08984,4.394531 l 0,-12.929688 c 0,-2.085937 -1.3711,-3.433593 -3.49219,-3.433593 -2.11719,0 -3.49219,1.347656 -3.49219,3.433593 l 0,41.910157 c 0,2.089843 1.375,3.441406 3.49219,3.441406 2.12109,0 3.49219,-1.351563 3.49219,-3.441406 l 0,-0.863282 c 1.96484,2.855469 5.35937,4.304688 10.08984,4.304688 10.96094,0 16.69922,-9.261719 16.69922,-18.410156 0,-9.144532 -5.73828,-18.40625 -16.69922,-18.40625"
         style="fill:#f0451e;fill-opacity:1;fill-rule:nonzero;stroke:none" />
      <path
         inkscape:connector-curvature="0"
         id="path42"
         d="m 274.49609,19.269531 c 0,-1.949219 -1.58593,-3.308593 -3.85156,-3.308593 -3.34375,0 -6.71094,2.71875 -8.49609,5.519531 l 0,-2.078125 c 0,-2.089844 -1.375,-3.441406 -3.48828,-3.441406 -2.125,0 -3.5,1.351562 -3.5,3.441406 l 0,29.933594 c 0,2.089843 1.375,3.441406 3.5,3.441406 2.11328,0 3.48828,-1.351563 3.48828,-3.441406 l 0,-16.828126 c 0,-7.832031 6.20312,-9.433593 8.11718,-9.734374 2.80079,-0.488282 4.23047,-1.667969 4.23047,-3.503907"
         style="fill:#f0451e;fill-opacity:1;fill-rule:nonzero;stroke:none" />
      <path
         inkscape:connector-curvature="0"
         id="path44"
         d="m 290.57031,47.09375 c -7.54687,0 -10.22265,-6.855469 -10.22265,-12.726562 0,-5.867188 2.67578,-12.722657 10.22265,-12.722657 7.55078,0 10.23047,6.855469 10.23047,12.722657 0,5.871093 -2.67969,12.726562 -10.23047,12.726562 m 13.57813,-31.132812 c -1.57813,0 -3.27344,0.992187 -3.27344,3.175781 l 0,1.25 c -3.19531,-3.097657 -6.30859,-4.425781 -10.30469,-4.425781 -11.29297,0 -17.21094,9.261718 -17.21094,18.40625 0,9.148437 5.91797,18.410156 17.21094,18.410156 4.07422,0 7.625,-1.699219 10.30469,-4.921875 l 0,1.746093 c 0,2.179688 1.69531,3.175782 3.27344,3.175782 1.32422,0 3.28125,-0.84375 3.28125,-3.175782 l 0,-30.464843 c 0,-2.328125 -1.95703,-3.175781 -3.28125,-3.175781"
         style="fill:#f0451e;fill-opacity:1;fill-rule:nonzero;stroke:none" />
      <g
         style="clip-rule:nonzero"
         id="g46"
         clip-path="url(#clip1)">
        <path
           inkscape:connector-curvature="0"
           id="path48"
           d="m 313.75781,19.742188 0.57813,0 c 0.65625,0 1.21484,-0.238282 1.21484,-0.855469 0,-0.4375 -0.32031,-0.878907 -1.21484,-0.878907 -0.26172,0 -0.44141,0.01953 -0.57813,0.04297 z m 0,2.769531 -0.79687,0 0,-5 c 0.41797,-0.0625 0.8164,-0.121094 1.41406,-0.121094 0.75781,0 1.25391,0.160156 1.55469,0.378906 0.29687,0.21875 0.45703,0.558594 0.45703,1.035157 0,0.660156 -0.4375,1.058593 -0.97656,1.214843 l 0,0.04297 c 0.4375,0.07813 0.73437,0.476562 0.83593,1.214844 0.1211,0.777344 0.23828,1.078125 0.32032,1.234375 l -0.83594,0 c -0.1211,-0.15625 -0.24219,-0.617188 -0.33985,-1.273438 -0.12109,-0.636719 -0.4375,-0.875 -1.07421,-0.875 l -0.5586,0 z m 0.83594,-6.394531 c -1.97266,0 -3.58594,1.691406 -3.58594,3.785156 0,2.132812 1.61328,3.804687 3.60547,3.804687 1.99219,0.02344 3.58594,-1.671875 3.58594,-3.785156 0,-2.113281 -1.59375,-3.804687 -3.58594,-3.804687 z m 0.0195,-0.699219 c 2.44922,0 4.40625,1.992187 4.40625,4.484375 0,2.53125 -1.95703,4.503906 -4.42578,4.503906 -2.44922,0 -4.44531,-1.972656 -4.44531,-4.503906 0,-2.492188 1.99609,-4.484375 4.44531,-4.484375 l 0.0195,0"
           style="fill:#f0451e;fill-opacity:1;fill-rule:nonzero;stroke:none" />
      </g>
      <path
         inkscape:connector-curvature="0"
         id="path50"
         d="m 151.14844,7.988281 c 0,2.191407 -1.78125,3.96875 -3.97266,3.96875 -2.19531,0 -3.97266,-1.777343 -3.97266,-3.96875 0,-2.191406 1.77735,-3.972656 3.97266,-3.972656 2.19141,0 3.97266,1.78125 3.97266,3.972656"
         style="fill:#f0451e;fill-opacity:1;fill-rule:nonzero;stroke:none" />
      <path
         inkscape:connector-curvature="0"
         id="path52"
         d="m 10.457031,8.957031 2.457031,7.550781 c 0.359376,1.082032 0.08203,2.269532 -0.707031,3.085938 -3.976562,4.089844 -6.078125,8.863281 -6.078125,13.796875 0,13.421875 15.300782,24.339844 34.117188,24.339844 18.816406,0 34.117187,-10.917969 34.117187,-24.339844 0,-13.417969 -15.300781,-24.332031 -34.117187,-24.332031 -6.652344,0 -13.109375,1.382812 -18.667969,4 -0.839844,0.398437 -1.808594,0.390625 -2.636719,-0.0078 z M 40.246094,63.859375 C 18.054688,63.859375 0,50.195312 0,33.390625 0,27.398438 2.25,21.664062 6.539062,16.707031 L 2.398438,4.015625 C 2.019531,2.847656 2.375,1.566406 3.300781,0.761719 4.222656,-0.0507812 5.539062,-0.230469 6.644531,0.304688 L 20.316406,6.902344 C 26.363281,4.300781 33.226562,2.929688 40.246094,2.929688 62.441406,2.929688 80.5,16.59375 80.5,33.390625 c 0,16.804687 -18.058594,30.46875 -40.253906,30.46875"
         style="fill:#f0451e;fill-opacity:1;fill-rule:nonzero;stroke:none" />
      <path
         inkscape:connector-curvature="0"
         id="path54"
         d="m 81.410156,53.449219 c 0.453125,0 0.90625,0.101562 1.332032,0.308593 l 8.476562,4.089844 -2.460938,-7.550781 c -0.355468,-1.082031 -0.07812,-2.273437 0.714844,-3.085937 3.976563,-4.089844 6.074219,-8.863282 6.074219,-13.796876 0,-13.421874 -15.304687,-24.339843 -34.117187,-24.339843 -18.816407,0 -34.121094,10.917969 -34.121094,24.339843 0,13.417969 15.304687,24.332032 34.121094,24.332032 6.660156,0 13.109374,-1.378906 18.671874,-4 0.414063,-0.195313 0.863282,-0.296875 1.308594,-0.296875 m 14.953125,13.355469 c -0.453125,0 -0.90625,-0.105469 -1.332031,-0.304688 L 81.363281,59.898438 c -6.054687,2.605468 -12.910156,3.980468 -19.933593,3.980468 -22.195313,0 -40.25,-13.664062 -40.25,-30.464844 0,-16.800781 18.054687,-30.464843 40.25,-30.464843 22.195312,0 40.253902,13.664062 40.253902,30.464843 0,5.996094 -2.257809,11.726563 -6.542965,16.6875 l 4.136719,12.6875 c 0.378906,1.164063 0.02734,2.449219 -0.898438,3.257813 -0.566406,0.496094 -1.285156,0.757813 -2.015625,0.757813"
         style="fill:#3882c7;fill-opacity:1;fill-rule:nonzero;stroke:none" />
      <path
         inkscape:connector-curvature="0"
         id="path56"
         d="m 113.29297,66.507812 4.05078,0 -2.01953,-4.914062 z m -1.38672,3.324219 -1.10937,0 4.0664,-9.347656 0.92188,0 4.0664,9.347656 -1.10937,0 -1.02735,-2.453125 -4.78125,0 -1.02734,2.453125"
         style="fill:#3d85c7;fill-opacity:1;fill-rule:nonzero;stroke:none" />
      <g
         style="clip-rule:nonzero"
         id="g58"
         clip-path="url(#clip2)">
        <path
           inkscape:connector-curvature="0"
           id="path60"
           d="m 135.69531,62.769531 c -0.16797,-0.210937 -0.39453,-0.367187 -0.67969,-0.46875 -0.28906,-0.101562 -0.55859,-0.152343 -0.8125,-0.152343 -0.15234,0 -0.30468,0.01953 -0.46484,0.05469 -0.15625,0.03516 -0.30469,0.08984 -0.44922,0.164063 -0.13672,0.07422 -0.2539,0.175781 -0.33984,0.296874 -0.0898,0.125 -0.13281,0.273438 -0.13281,0.449219 0,0.28125 0.10546,0.496094 0.3164,0.648438 0.21094,0.148437 0.47656,0.277343 0.80078,0.382812 0.32032,0.105469 0.66407,0.210938 1.03516,0.316407 0.37109,0.105468 0.71484,0.253906 1.03516,0.449218 0.32031,0.191406 0.58984,0.453125 0.80078,0.777344 0.21093,0.324219 0.3164,0.761719 0.3164,1.308594 0,0.519531 -0.0977,0.972656 -0.29297,1.359375 -0.1914,0.386719 -0.45312,0.707031 -0.78515,0.960937 -0.32813,0.257813 -0.71094,0.445313 -1.14844,0.570313 -0.43359,0.121093 -0.89453,0.183593 -1.37891,0.183593 -0.60546,0 -1.17187,-0.09375 -1.6914,-0.277343 -0.51953,-0.183594 -1,-0.484375 -1.44922,-0.898438 l 1.46484,-1.609375 c 0.21094,0.28125 0.47657,0.5 0.79688,0.652344 0.32422,0.15625 0.65234,0.230469 1,0.230469 0.16406,0 0.33594,-0.01953 0.50781,-0.05859 0.17188,-0.03906 0.32422,-0.09766 0.46094,-0.175781 0.13672,-0.08203 0.24609,-0.183594 0.32812,-0.304688 0.0859,-0.125 0.125,-0.269531 0.125,-0.4375 0,-0.28125 -0.10547,-0.503906 -0.32031,-0.664062 -0.21875,-0.164063 -0.48828,-0.300782 -0.8125,-0.417969 -0.32422,-0.113281 -0.67969,-0.226563 -1.05859,-0.34375 C 132.48828,65.652344 132.14062,65.5 131.8125,65.304688 131.48828,65.109375 131.21875,64.855469 131,64.539062 c -0.21484,-0.316406 -0.32422,-0.734374 -0.32422,-1.253906 0,-0.503906 0.10156,-0.941406 0.29688,-1.320312 0.19921,-0.378906 0.46484,-0.695313 0.79296,-0.949219 0.33204,-0.257813 0.71094,-0.449219 1.14454,-0.574219 0.42968,-0.128906 0.875,-0.191406 1.33203,-0.191406 0.52734,0 1.03906,0.07422 1.53125,0.222656 0.49218,0.148438 0.9375,0.402344 1.33203,0.753906 l -1.41016,1.542969"
           style="fill:#3d85c7;fill-opacity:1;fill-rule:nonzero;stroke:none" />
      </g>
      <path
         inkscape:connector-curvature="0"
         id="path62"
         d="m 144.24609,65.847656 -3.51172,-5.363281 2.5625,0 1.98047,3.5 2.10157,-3.5 2.4414,0 -3.51172,5.363281 0,3.984375 -2.0625,0 0,-3.984375"
         style="fill:#3d85c7;fill-opacity:1;fill-rule:nonzero;stroke:none" />
      <path
         inkscape:connector-curvature="0"
         id="path64"
         d="m 153.80469,60.484375 2.80078,0 3.97265,6.496094 0.0273,0 0,-6.496094 2.05859,0 0,9.347656 -2.6914,0 -4.08204,-6.652343 -0.0273,0 0,6.652343 -2.05859,0 0,-9.347656"
         style="fill:#3d85c7;fill-opacity:1;fill-rule:nonzero;stroke:none" />
      <path
         inkscape:connector-curvature="0"
         id="path66"
         d="m 171.73437,63.207031 -1.13671,2.902344 2.28515,0 z m -0.79296,-2.722656 1.70312,0 4.06641,9.347656 -2.32422,0 -0.80469,-1.980469 -3.63281,0 -0.77735,1.980469 -2.26953,0 4.03907,-9.347656"
         style="fill:#3d85c7;fill-opacity:1;fill-rule:nonzero;stroke:none" />
      <g
         style="clip-rule:nonzero"
         id="g68"
         clip-path="url(#clip3)">
        <path
           inkscape:connector-curvature="0"
           id="path70"
           d="m 187.05859,62.914062 c -0.20312,-0.246093 -0.44922,-0.433593 -0.74609,-0.566406 -0.29297,-0.132812 -0.63281,-0.199218 -1.02344,-0.199218 -0.38672,0 -0.74219,0.07422 -1.07422,0.226562 -0.32812,0.148438 -0.61718,0.355469 -0.85937,0.625 -0.24219,0.269531 -0.42969,0.589844 -0.56641,0.957031 -0.13672,0.371094 -0.20312,0.773438 -0.20312,1.203125 0,0.441406 0.0664,0.84375 0.20312,1.207032 0.13672,0.367187 0.32422,0.683593 0.5625,0.949218 0.23828,0.269532 0.51563,0.480469 0.83594,0.628906 0.32422,0.148438 0.66797,0.222657 1.03906,0.222657 0.42188,0 0.79297,-0.08594 1.1211,-0.261719 0.32421,-0.175781 0.59375,-0.421875 0.80468,-0.738281 l 1.71485,1.277343 c -0.39453,0.554688 -0.89453,0.964844 -1.50391,1.230469 -0.60547,0.261719 -1.23047,0.394531 -1.875,0.394531 -0.73047,0 -1.40234,-0.113281 -2.01953,-0.34375 -0.61719,-0.226562 -1.14844,-0.554687 -1.59766,-0.984374 -0.44922,-0.425782 -0.79687,-0.941407 -1.05078,-1.550782 -0.25,-0.605468 -0.375,-1.285156 -0.375,-2.03125 0,-0.75 0.125,-1.425781 0.375,-2.035156 0.25391,-0.605469 0.60156,-1.121094 1.05078,-1.550781 0.44922,-0.425781 0.98047,-0.753907 1.59766,-0.980469 0.61719,-0.230469 1.28906,-0.34375 2.01953,-0.34375 0.26563,0 0.53906,0.02344 0.82422,0.07031 0.28906,0.05078 0.57031,0.125 0.84766,0.230469 0.27734,0.105469 0.54296,0.246094 0.79687,0.425781 0.25391,0.175782 0.48438,0.390626 0.6875,0.644532 l -1.58594,1.292968"
           style="fill:#3d85c7;fill-opacity:1;fill-rule:nonzero;stroke:none" />
      </g>
      <g
         style="clip-rule:nonzero"
         id="g72"
         clip-path="url(#clip4)">
        <path
           inkscape:connector-curvature="0"
           id="path74"
           d="m 194.92578,65.160156 c 0,0.441406 0.0703,0.84375 0.20703,1.207032 0.13672,0.367187 0.33203,0.683593 0.58594,0.949218 0.25391,0.269532 0.5625,0.480469 0.91797,0.628906 0.35547,0.148438 0.7539,0.222657 1.19531,0.222657 0.44141,0 0.83984,-0.07422 1.19531,-0.222657 0.35547,-0.148437 0.66016,-0.359374 0.91797,-0.628906 0.25391,-0.265625 0.44922,-0.582031 0.58594,-0.949218 0.13672,-0.363282 0.20312,-0.765626 0.20312,-1.207032 0,-0.429687 -0.0664,-0.832031 -0.20312,-1.203125 -0.13672,-0.367187 -0.33203,-0.6875 -0.58594,-0.957031 -0.25781,-0.269531 -0.5625,-0.476562 -0.91797,-0.625 -0.35547,-0.152344 -0.7539,-0.226562 -1.19531,-0.226562 -0.44141,0 -0.83984,0.07422 -1.19531,0.226562 -0.35547,0.148438 -0.66406,0.355469 -0.91797,0.625 -0.25391,0.269531 -0.44922,0.589844 -0.58594,0.957031 -0.13672,0.371094 -0.20703,0.773438 -0.20703,1.203125 z m -2.13672,0 c 0,-0.75 0.125,-1.425781 0.375,-2.035156 0.25,-0.605469 0.60156,-1.121094 1.05078,-1.550781 0.44922,-0.425781 0.98047,-0.753907 1.59766,-0.980469 0.61719,-0.230469 1.28906,-0.34375 2.01953,-0.34375 0.73047,0 1.40234,0.113281 2.01953,0.34375 0.61719,0.226562 1.14844,0.554688 1.59766,0.980469 0.44922,0.429687 0.79687,0.945312 1.04687,1.550781 0.25391,0.609375 0.37891,1.285156 0.37891,2.035156 0,0.746094 -0.125,1.425782 -0.37891,2.03125 -0.25,0.609375 -0.59765,1.125 -1.04687,1.550782 C 201,69.171875 200.46875,69.5 199.85156,69.726562 c -0.61719,0.230469 -1.28906,0.34375 -2.01953,0.34375 -0.73047,0 -1.40234,-0.113281 -2.01953,-0.34375 -0.61719,-0.226562 -1.14844,-0.554687 -1.59766,-0.984374 -0.44922,-0.425782 -0.80078,-0.941407 -1.05078,-1.550782 -0.25,-0.605468 -0.375,-1.285156 -0.375,-2.03125"
           style="fill:#3d85c7;fill-opacity:1;fill-rule:nonzero;stroke:none" />
      </g>
      <path
         inkscape:connector-curvature="0"
         id="path76"
         d="m 209.63281,64.355469 1.21485,0 c 0.18359,0 0.38281,-0.0078 0.58984,-0.01953 0.20312,-0.01563 0.39062,-0.05469 0.55859,-0.121094 0.16797,-0.06641 0.3086,-0.167969 0.41797,-0.308594 0.10938,-0.140625 0.16406,-0.339844 0.16406,-0.59375 0,-0.238281 -0.0508,-0.429688 -0.14453,-0.570312 -0.0977,-0.140626 -0.22265,-0.246094 -0.37109,-0.320313 -0.14844,-0.07422 -0.32031,-0.128906 -0.51563,-0.152344 -0.1914,-0.02734 -0.38281,-0.03906 -0.5664,-0.03906 l -1.34766,0 z m -2.05859,-3.871094 3.61719,0 c 0.47656,0 0.92578,0.04687 1.35156,0.140625 0.42969,0.09375 0.80078,0.246094 1.12109,0.460938 0.32422,0.214843 0.57813,0.507812 0.76953,0.871093 0.1875,0.367188 0.28125,0.820313 0.28125,1.367188 0,0.660156 -0.16797,1.222656 -0.51562,1.683593 -0.33985,0.460938 -0.84375,0.753907 -1.50391,0.878907 l 2.37891,3.945312 -2.46875,0 -1.95703,-3.734375 -1.01563,0 0,3.734375 -2.05859,0 0,-9.347656"
         style="fill:#3d85c7;fill-opacity:1;fill-rule:nonzero;stroke:none" />
      <path
         inkscape:connector-curvature="0"
         id="path78"
         d="m 227.90234,64.617188 1.53125,0 c 0.42578,0 0.78125,-0.04297 1.07813,-0.132813 0.29297,-0.08594 0.52734,-0.203125 0.70703,-0.347656 0.17578,-0.144531 0.30078,-0.316407 0.38281,-0.515625 0.0781,-0.199219 0.11719,-0.410156 0.11719,-0.640625 0,-0.21875 -0.0391,-0.429688 -0.11719,-0.625 -0.082,-0.199219 -0.20703,-0.371094 -0.38281,-0.523438 -0.17969,-0.148437 -0.41406,-0.265625 -0.70703,-0.347656 -0.29688,-0.08594 -0.65235,-0.128906 -1.07813,-0.128906 l -1.53125,0 z m -0.94922,-4.132813 2.71875,0 c 0.94922,0 1.69922,0.207031 2.25,0.621094 0.55079,0.414062 0.82813,1.039062 0.82813,1.875 0,0.835937 -0.27734,1.464843 -0.82813,1.882812 -0.55078,0.417969 -1.30078,0.625 -2.25,0.625 l -1.76953,0 0,4.34375 -0.94922,0 0,-9.347656"
         style="fill:#3d85c7;fill-opacity:1;fill-rule:nonzero;stroke:none" />
      <path
         inkscape:connector-curvature="0"
         id="path80"
         d="m 238.78125,64.617188 1.69141,0 c 0.42187,0 0.78125,-0.04297 1.07421,-0.132813 0.29688,-0.08594 0.53125,-0.203125 0.70704,-0.347656 0.17578,-0.144531 0.30468,-0.316407 0.38281,-0.515625 0.0781,-0.199219 0.11719,-0.410156 0.11719,-0.640625 0,-0.21875 -0.0391,-0.429688 -0.11719,-0.625 -0.0781,-0.199219 -0.20703,-0.371094 -0.38281,-0.523438 -0.17579,-0.148437 -0.41016,-0.265625 -0.70704,-0.347656 -0.29296,-0.08594 -0.65234,-0.128906 -1.07421,-0.128906 l -1.69141,0 z m 0,5.214843 -0.94922,0 0,-9.347656 2.87891,0 c 0.94922,0 1.69922,0.207031 2.25,0.621094 0.55078,0.414062 0.82422,1.039062 0.82422,1.875 0,0.652343 -0.20704,1.199219 -0.61329,1.644531 -0.41015,0.445312 -1.0039,0.703125 -1.77734,0.773438 l 2.69531,4.433593 -1.16406,0 -2.55859,-4.34375 -1.58594,0 0,4.34375"
         style="fill:#3d85c7;fill-opacity:1;fill-rule:nonzero;stroke:none" />
      <g
         style="clip-rule:nonzero"
         id="g82"
         clip-path="url(#clip5)">
        <path
           inkscape:connector-curvature="0"
           id="path84"
           d="m 257.03906,65.160156 c 0,-0.539062 -0.0898,-1.050781 -0.26562,-1.539062 -0.17578,-0.488282 -0.42578,-0.917969 -0.75782,-1.285156 -0.33203,-0.371094 -0.73437,-0.664063 -1.20703,-0.886719 -0.47656,-0.21875 -1.01172,-0.328125 -1.61328,-0.328125 -0.59765,0 -1.13281,0.109375 -1.60937,0.328125 -0.47657,0.222656 -0.875,0.515625 -1.20703,0.886719 -0.33204,0.367187 -0.58204,0.796874 -0.76172,1.285156 -0.17578,0.488281 -0.26172,1 -0.26172,1.539062 0,0.535156 0.0859,1.046875 0.26172,1.535156 0.17968,0.492188 0.42968,0.917969 0.76172,1.289063 0.33203,0.371094 0.73046,0.664063 1.20703,0.882813 0.47656,0.222656 1.01172,0.332031 1.60937,0.332031 0.60156,0 1.13672,-0.109375 1.61328,-0.332031 0.47266,-0.21875 0.875,-0.511719 1.20703,-0.882813 0.33204,-0.371094 0.58204,-0.796875 0.75782,-1.289063 0.17578,-0.488281 0.26562,-1 0.26562,-1.535156 z m 1.02735,0 c 0,0.710938 -0.1211,1.367188 -0.36719,1.964844 -0.2461,0.601562 -0.58985,1.117188 -1.02344,1.550781 -0.4375,0.4375 -0.94922,0.777344 -1.54297,1.023438 -0.59765,0.246093 -1.24219,0.371093 -1.9375,0.371093 -0.6914,0 -1.33984,-0.125 -1.93359,-0.371093 -0.59375,-0.246094 -1.10938,-0.585938 -1.54297,-1.023438 -0.4375,-0.433593 -0.77734,-0.949219 -1.02344,-1.550781 -0.24609,-0.597656 -0.37109,-1.253906 -0.37109,-1.964844 0,-0.714844 0.125,-1.367187 0.37109,-1.96875 0.2461,-0.597656 0.58594,-1.113281 1.02344,-1.550781 0.43359,-0.433594 0.94922,-0.777344 1.54297,-1.023437 0.59375,-0.246094 1.24219,-0.367188 1.93359,-0.367188 0.69531,0 1.33985,0.121094 1.9375,0.367188 0.59375,0.246093 1.10547,0.589843 1.54297,1.023437 0.43359,0.4375 0.77734,0.953125 1.02344,1.550781 0.24609,0.601563 0.36719,1.253906 0.36719,1.96875"
           style="fill:#3d85c7;fill-opacity:1;fill-rule:nonzero;stroke:none" />
      </g>
      <path
         inkscape:connector-curvature="0"
         id="path86"
         d="m 264.08984,68.960938 1.84766,0 c 0.71094,0 1.32812,-0.105469 1.85156,-0.324219 0.52344,-0.214844 0.96094,-0.5 1.3086,-0.855469 0.34765,-0.359375 0.60546,-0.761719 0.77343,-1.214844 0.16407,-0.453125 0.25,-0.921875 0.25,-1.40625 0,-0.484375 -0.0859,-0.953125 -0.25,-1.40625 -0.16797,-0.453125 -0.42578,-0.859375 -0.77343,-1.214844 -0.34766,-0.355468 -0.78516,-0.640624 -1.3086,-0.859374 -0.52344,-0.214844 -1.14062,-0.324219 -1.85156,-0.324219 l -1.84766,0 z m -0.95312,-8.476563 3.10156,0 c 0.58203,0 1.16406,0.09766 1.75,0.292969 0.58594,0.191406 1.11328,0.484375 1.58594,0.878906 0.46875,0.390625 0.85156,0.878906 1.14062,1.464844 0.28907,0.585937 0.4336,1.265625 0.4336,2.039062 0,0.78125 -0.14453,1.464844 -0.4336,2.046875 -0.28906,0.578125 -0.67187,1.066407 -1.14062,1.457031 -0.47266,0.390626 -1,0.683594 -1.58594,0.878907 -0.58594,0.191406 -1.16797,0.289062 -1.75,0.289062 l -3.10156,0 0,-9.347656"
         style="fill:#3d85c7;fill-opacity:1;fill-rule:nonzero;stroke:none" />
      <g
         style="clip-rule:nonzero"
         id="g88"
         clip-path="url(#clip6)">
        <path
           inkscape:connector-curvature="0"
           id="path90"
           d="m 283.03125,66.347656 c 0,0.386719 -0.0469,0.796875 -0.13672,1.234375 -0.0937,0.4375 -0.26562,0.835938 -0.52344,1.207031 -0.2539,0.371094 -0.60547,0.675782 -1.05078,0.917969 -0.4414,0.242188 -1.01172,0.363281 -1.70703,0.363281 -0.70312,0 -1.27734,-0.121093 -1.71484,-0.363281 -0.44141,-0.242187 -0.78907,-0.546875 -1.04688,-0.917969 -0.2539,-0.371093 -0.42578,-0.769531 -0.51953,-1.207031 -0.0937,-0.4375 -0.14062,-0.847656 -0.14062,-1.234375 l 0,-5.863281 0.95312,0 0,5.757813 c 0,0.449218 0.043,0.832031 0.13281,1.15625 0.0859,0.320312 0.20313,0.589843 0.34766,0.808593 0.14453,0.222657 0.30859,0.394531 0.48828,0.523438 0.18359,0.128906 0.36328,0.226562 0.54297,0.296875 0.17969,0.07031 0.35547,0.117187 0.51953,0.140625 0.16797,0.01953 0.3125,0.03125 0.4375,0.03125 0.11328,0 0.25781,-0.01172 0.42578,-0.03125 0.17578,-0.02344 0.35156,-0.07031 0.53125,-0.140625 0.17969,-0.07031 0.35938,-0.167969 0.53906,-0.296875 0.17969,-0.128907 0.34375,-0.300781 0.48829,-0.523438 0.14843,-0.21875 0.26171,-0.488281 0.35156,-0.808593 0.0859,-0.324219 0.13281,-0.707032 0.13281,-1.15625 l 0,-5.757813 0.94922,0 0,5.863281"
           style="fill:#3d85c7;fill-opacity:1;fill-rule:nonzero;stroke:none" />
      </g>
      <g
         style="clip-rule:nonzero"
         id="g92"
         clip-path="url(#clip7)">
        <path
           inkscape:connector-curvature="0"
           id="path94"
           d="m 296.40625,68.355469 c -0.16016,0.238281 -0.35547,0.460937 -0.58984,0.671875 -0.23047,0.210937 -0.5,0.394531 -0.79688,0.546875 -0.30078,0.15625 -0.625,0.277343 -0.97266,0.363281 -0.34765,0.08984 -0.71484,0.132812 -1.10156,0.132812 -0.69531,0 -1.33984,-0.125 -1.93359,-0.371093 -0.59375,-0.246094 -1.10938,-0.585938 -1.54297,-1.023438 -0.4375,-0.433593 -0.77734,-0.949219 -1.02344,-1.550781 -0.24609,-0.597656 -0.37109,-1.253906 -0.37109,-1.964844 0,-0.714844 0.125,-1.367187 0.37109,-1.96875 0.2461,-0.597656 0.58594,-1.113281 1.02344,-1.550781 0.43359,-0.433594 0.94922,-0.777344 1.54297,-1.023437 C 291.60547,60.371094 292.25,60.25 292.94531,60.25 c 0.58203,0 1.16406,0.113281 1.74219,0.34375 0.58203,0.226562 1.07812,0.605469 1.49219,1.132812 l -0.83203,0.621094 c -0.0937,-0.148437 -0.22657,-0.300781 -0.39454,-0.449218 -0.16796,-0.148438 -0.35937,-0.28125 -0.57421,-0.394532 -0.21875,-0.117187 -0.44922,-0.207031 -0.69532,-0.277344 -0.24609,-0.07031 -0.49218,-0.105468 -0.73828,-0.105468 -0.59765,0 -1.13281,0.109375 -1.60937,0.328125 -0.47657,0.222656 -0.87891,0.515625 -1.20703,0.886719 -0.33204,0.367187 -0.58594,0.796874 -0.76172,1.285156 -0.17578,0.488281 -0.26172,1 -0.26172,1.539062 0,0.535156 0.0859,1.046875 0.26172,1.535156 0.17578,0.492188 0.42968,0.917969 0.76172,1.289063 0.32812,0.371094 0.73046,0.664063 1.20703,0.882813 0.47656,0.222656 1.01172,0.332031 1.60937,0.332031 0.2461,0 0.49219,-0.02344 0.73438,-0.06641 0.24218,-0.04297 0.47656,-0.117187 0.71093,-0.222656 0.23438,-0.105468 0.45313,-0.25 0.66016,-0.429687 0.20703,-0.179688 0.39844,-0.40625 0.57422,-0.679688 l 0.78125,0.554688"
           style="fill:#3d85c7;fill-opacity:1;fill-rule:nonzero;stroke:none" />
      </g>
      <path
         inkscape:connector-curvature="0"
         id="path96"
         d="m 304.30078,69.832031 -0.95312,0 0,-8.476562 -3.12891,0 0,-0.871094 7.21094,0 0,0.871094 -3.12891,0 0,8.476562"
         style="fill:#3d85c7;fill-opacity:1;fill-rule:nonzero;stroke:none" />
    </g>
  </g>
</svg>
